<svg xmlns="http://www.w3.org/2000/svg" viewBox="0 0 64 64">
  <!-- キービジュアル（朱色の破片＋橙の渦）を 16px でも読めるよう単純化したもの -->
  <rect width="64" height="64" rx="15" fill="#1a120c"/>

  <!-- 橙のつぶつぶの渦 -->
  <g fill="#f8c070">
    <circle cx="32" cy="9"  r="2.6"/>
    <circle cx="44" cy="12" r="2.1"/>
    <circle cx="53" cy="20" r="2.4"/>
    <circle cx="56" cy="32" r="2.1"/>
    <circle cx="53" cy="44" r="2.4"/>
    <circle cx="44" cy="52" r="2.1"/>
    <circle cx="32" cy="55" r="2.6"/>
    <circle cx="20" cy="52" r="2.1"/>
    <circle cx="11" cy="44" r="2.4"/>
    <circle cx="8"  cy="32" r="2.1"/>
    <circle cx="11" cy="20" r="2.4"/>
    <circle cx="20" cy="12" r="2.1"/>
  </g>
  <g fill="#f59b3f">
    <circle cx="38" cy="17" r="1.6"/>
    <circle cx="48" cy="38" r="1.6"/>
    <circle cx="24" cy="48" r="1.6"/>
    <circle cx="16" cy="27" r="1.6"/>
  </g>

  <!-- 朱色の鋭い破片 -->
  <g fill="#f4492f">
    <path d="M30 14 L35 40 L25 44 Z"/>
    <path d="M42 20 L40 46 L33 36 Z"/>
    <path d="M19 24 L31 45 L21 47 Z"/>
  </g>
  <path d="M30 14 L33 29 L27 31 Z" fill="#d2360f"/>
</svg>
